<mxfile host="app.diagrams.net" modified="2022-07-29T07:11:50.986Z" agent="5.0 (Macintosh; Intel Mac OS X 10_15_7) AppleWebKit/537.36 (KHTML, like Gecko) Chrome/103.0.0.0 Safari/537.36" etag="VdjJ6LEySPSybvfX3b4M" version="20.2.2" type="github">
  <diagram name="Page-1" id="b5b7bab2-c9e2-2cf4-8b2a-24fd1a2a6d21">
    <mxGraphModel dx="1426" dy="769" grid="1" gridSize="10" guides="1" tooltips="1" connect="1" arrows="1" fold="1" page="1" pageScale="1" pageWidth="827" pageHeight="1169" background="none" math="0" shadow="0">
      <root>
        <mxCell id="0" />
        <mxCell id="1" parent="0" />
        <mxCell id="Ct-xyR0cVC4yNxT3Hz8k-3" value="     Current Version" style="swimlane;align=left;fillColor=#f8cecc;strokeColor=#b85450;" parent="1" vertex="1">
          <mxGeometry x="60" y="130" width="300" height="490" as="geometry" />
        </mxCell>
        <mxCell id="Ct-xyR0cVC4yNxT3Hz8k-15" value="Nginx" style="rounded=0;whiteSpace=wrap;html=1;verticalAlign=top;" parent="Ct-xyR0cVC4yNxT3Hz8k-3" vertex="1">
          <mxGeometry x="43.75" y="55" width="216.25" height="255" as="geometry" />
        </mxCell>
        <mxCell id="Ct-xyR0cVC4yNxT3Hz8k-16" value="OpenSSL" style="rounded=0;whiteSpace=wrap;html=1;align=left;" parent="Ct-xyR0cVC4yNxT3Hz8k-3" vertex="1">
          <mxGeometry x="55" y="330" width="195" height="120" as="geometry" />
        </mxCell>
        <mxCell id="Ct-xyR0cVC4yNxT3Hz8k-17" value="collect Client Hello" style="rounded=0;whiteSpace=wrap;html=1;" parent="Ct-xyR0cVC4yNxT3Hz8k-3" vertex="1">
          <mxGeometry x="120" y="370" width="105" height="40" as="geometry" />
        </mxCell>
        <mxCell id="Ct-xyR0cVC4yNxT3Hz8k-23" value="" style="group;fillColor=#e1d5e7;strokeColor=#9673a6;shadow=0;rounded=0;" parent="Ct-xyR0cVC4yNxT3Hz8k-3" vertex="1" connectable="0">
          <mxGeometry x="60" y="100" width="180" height="180" as="geometry" />
        </mxCell>
        <mxCell id="Ct-xyR0cVC4yNxT3Hz8k-21" value="nginx-fingerprint-module" style="rounded=0;whiteSpace=wrap;html=1;verticalAlign=top;fillColor=#f8cecc;strokeColor=#b85450;" parent="Ct-xyR0cVC4yNxT3Hz8k-23" vertex="1">
          <mxGeometry width="180" height="180" as="geometry" />
        </mxCell>
        <mxCell id="Ct-xyR0cVC4yNxT3Hz8k-20" value="md5 hash ja3" style="rounded=0;whiteSpace=wrap;html=1;fillColor=#f8cecc;strokeColor=#b85450;" parent="Ct-xyR0cVC4yNxT3Hz8k-23" vertex="1">
          <mxGeometry x="37.5" y="30" width="105" height="40" as="geometry" />
        </mxCell>
        <mxCell id="Ct-xyR0cVC4yNxT3Hz8k-19" value="generate ja3 string&amp;nbsp;" style="rounded=0;whiteSpace=wrap;html=1;fillColor=#f8cecc;strokeColor=#b85450;" parent="Ct-xyR0cVC4yNxT3Hz8k-23" vertex="1">
          <mxGeometry x="39.379999999999995" y="80" width="105" height="40" as="geometry" />
        </mxCell>
        <mxCell id="Ct-xyR0cVC4yNxT3Hz8k-18" value="calculate ja3" style="rounded=0;whiteSpace=wrap;html=1;fillColor=#f8cecc;strokeColor=#b85450;" parent="Ct-xyR0cVC4yNxT3Hz8k-23" vertex="1">
          <mxGeometry x="40" y="130" width="105" height="40" as="geometry" />
        </mxCell>
        <mxCell id="Ct-xyR0cVC4yNxT3Hz8k-24" style="edgeStyle=orthogonalEdgeStyle;rounded=0;orthogonalLoop=1;jettySize=auto;html=1;entryX=0.381;entryY=0;entryDx=0;entryDy=0;entryPerimeter=0;" parent="Ct-xyR0cVC4yNxT3Hz8k-3" source="Ct-xyR0cVC4yNxT3Hz8k-18" target="Ct-xyR0cVC4yNxT3Hz8k-17" edge="1">
          <mxGeometry relative="1" as="geometry" />
        </mxCell>
        <mxCell id="Ct-xyR0cVC4yNxT3Hz8k-4" value="    New Version" style="swimlane;align=left;fillColor=#d5e8d4;strokeColor=#82b366;" parent="1" vertex="1">
          <mxGeometry x="710" y="140" width="300" height="490" as="geometry" />
        </mxCell>
        <mxCell id="Ct-xyR0cVC4yNxT3Hz8k-5" value="Nginx" style="rounded=0;whiteSpace=wrap;html=1;verticalAlign=top;" parent="Ct-xyR0cVC4yNxT3Hz8k-4" vertex="1">
          <mxGeometry x="43.75" y="60" width="212.5" height="150" as="geometry" />
        </mxCell>
        <mxCell id="Ct-xyR0cVC4yNxT3Hz8k-6" value="OpenSSL" style="rounded=0;whiteSpace=wrap;html=1;align=left;" parent="Ct-xyR0cVC4yNxT3Hz8k-4" vertex="1">
          <mxGeometry x="55" y="250" width="195" height="205" as="geometry" />
        </mxCell>
        <mxCell id="Ct-xyR0cVC4yNxT3Hz8k-7" value="collect Client Hello" style="rounded=0;whiteSpace=wrap;html=1;" parent="Ct-xyR0cVC4yNxT3Hz8k-4" vertex="1">
          <mxGeometry x="115" y="410" width="105" height="40" as="geometry" />
        </mxCell>
        <mxCell id="Ct-xyR0cVC4yNxT3Hz8k-8" value="calculate ja3" style="rounded=0;whiteSpace=wrap;html=1;" parent="Ct-xyR0cVC4yNxT3Hz8k-4" vertex="1">
          <mxGeometry x="115" y="357.5" width="105" height="40" as="geometry" />
        </mxCell>
        <mxCell id="Ct-xyR0cVC4yNxT3Hz8k-9" value="generate ja3 string&amp;nbsp;" style="rounded=0;whiteSpace=wrap;html=1;" parent="Ct-xyR0cVC4yNxT3Hz8k-4" vertex="1">
          <mxGeometry x="115" y="310" width="105" height="40" as="geometry" />
        </mxCell>
        <mxCell id="Ct-xyR0cVC4yNxT3Hz8k-13" style="edgeStyle=orthogonalEdgeStyle;rounded=0;orthogonalLoop=1;jettySize=auto;html=1;entryX=0.5;entryY=0;entryDx=0;entryDy=0;" parent="Ct-xyR0cVC4yNxT3Hz8k-4" target="Ct-xyR0cVC4yNxT3Hz8k-9" edge="1">
          <mxGeometry relative="1" as="geometry">
            <mxPoint x="150" y="180" as="sourcePoint" />
            <mxPoint x="167.5" y="260" as="targetPoint" />
          </mxGeometry>
        </mxCell>
        <mxCell id="uGpvQ5dNdYO_cw-cLMIG-1" value="" style="group;fillColor=#e1d5e7;strokeColor=#9673a6;shadow=0;rounded=0;" vertex="1" connectable="0" parent="Ct-xyR0cVC4yNxT3Hz8k-4">
          <mxGeometry x="65" y="87" width="170" height="90" as="geometry" />
        </mxCell>
        <mxCell id="uGpvQ5dNdYO_cw-cLMIG-2" value="nginx-fingerprint-module" style="rounded=0;whiteSpace=wrap;html=1;verticalAlign=top;fillColor=#f8cecc;strokeColor=#b85450;" vertex="1" parent="uGpvQ5dNdYO_cw-cLMIG-1">
          <mxGeometry width="170" height="90" as="geometry" />
        </mxCell>
        <mxCell id="uGpvQ5dNdYO_cw-cLMIG-3" value="md5 hash ja3" style="rounded=0;whiteSpace=wrap;html=1;fillColor=#f8cecc;strokeColor=#b85450;" vertex="1" parent="uGpvQ5dNdYO_cw-cLMIG-1">
          <mxGeometry x="30" y="30" width="104.58" height="40" as="geometry" />
        </mxCell>
      </root>
    </mxGraphModel>
  </diagram>
</mxfile>
